<svg width="24" height="24" viewBox="0 0 24 24" fill="none" xmlns="http://www.w3.org/2000/svg">
<path d="M17.3823 1C18.1396 1.00014 18.8316 1.42815 19.1704 2.10547L19.6401 3.04492C20.3733 3.2026 20.9719 3.764 21.1597 4.51465L21.6597 6.51465C21.9275 7.58615 21.276 8.67242 20.2046 8.94043C20.0942 8.96804 19.981 8.98178 19.8677 8.99023L17.8677 23H6.13232L4.13135 8.99121C3.09667 8.91467 2.28076 8.05423 2.28076 7C2.28076 6.83648 2.30067 6.67329 2.34033 6.51465L2.84033 4.51465C3.02809 3.764 3.62673 3.2026 4.35986 3.04492L4.82959 2.10547C5.16837 1.42815 5.86036 1.00013 6.61768 1H17.3823ZM7.86768 21H16.1323L17.8472 9H6.15283L7.86768 21ZM5.61768 5H4.78076L4.28076 7H19.7192L19.2192 5H18.3823L17.3823 3H6.61768L5.61768 5Z" fill="white"/>
</svg>
